<svg width="549" height="96" viewBox="0 0 549 96" fill="none" xmlns="http://www.w3.org/2000/svg">
<g clip-path="url(#clip0_79_980)">
<path d="M68.3049 27.9661L58.5094 23.6106L27.5856 38.1486V47.4842L22.1911 45.0855V35.7499L53.1149 21.212L42.7282 16.5936C41.3374 15.9753 39.0616 15.9753 37.6709 16.5936L12.0944 27.9661C10.0568 28.8721 8.394 31.4379 8.39918 33.6678L8.43906 50.5193C10.0424 50.0034 11.7482 49.7186 13.5208 49.7186C22.6913 49.7186 30.1529 57.1802 30.1529 66.3518C30.1529 68.7471 29.6338 71.0202 28.7181 73.0798L37.7492 76.9404C39.0946 77.5154 41.2958 77.5155 42.6413 76.9406L68.1595 66.0354C70.2318 65.1499 71.9315 62.5816 71.9368 60.328L72 33.6676C72.0052 31.4378 70.3425 28.872 68.3049 27.9661ZM58.43 47.314L61.8956 40.0024C62.2455 39.2644 63.1226 38.8386 63.4736 39.2388L67.03 43.2931C67.3852 43.6979 66.9345 44.6198 66.2219 44.9504L64.7249 45.6448L64.6947 56.1775C64.6933 56.6378 64.2868 57.1856 63.7879 57.4009L61.5468 58.3684C61.0555 58.5805 60.6581 58.3839 60.6579 57.9296L60.6504 47.5351L59.2004 48.2078C58.5185 48.5241 58.0915 48.0281 58.43 47.314ZM45.6516 53.2885L48.8014 46.3381C49.1191 45.6371 49.9313 45.2426 50.2628 45.6308L53.6195 49.5629C53.9548 49.9554 53.5456 50.8311 52.8858 51.1372L51.4996 51.7802L51.5891 61.8658C51.5929 62.3068 51.2202 62.8261 50.7578 63.0258L48.6796 63.9228C48.224 64.1195 47.8512 63.9258 47.8459 63.4905L47.7241 53.532L46.3795 54.1558C45.7473 54.4491 45.3438 53.9679 45.6516 53.2885ZM68.6954 58.9741C68.6938 59.2055 68.4859 59.4798 68.2312 59.5868L44.4958 69.5582C44.2742 69.6513 44.092 69.5539 44.0888 69.3405L44.0706 68.1804C44.0673 67.9666 44.2442 67.7166 44.466 67.6221L68.2438 57.4931C68.4991 57.3844 68.7049 57.4842 68.7035 57.7161L68.6954 58.9741ZM13.5206 52.8309C6.05341 52.8309 0 58.8844 0 66.3515C0 73.8188 6.05341 79.8722 13.5206 79.8722C20.9878 79.8722 27.0412 73.8188 27.0412 66.3515C27.0413 58.8844 20.9878 52.8309 13.5206 52.8309ZM22.3554 63.5737L14.0349 72.934C13.6251 73.3951 13.0544 73.6319 12.4795 73.6319C12.0229 73.6319 11.5639 73.4825 11.1809 73.1758L5.98071 69.0157C5.08376 68.2986 4.93812 66.9894 5.65612 66.0926C6.37318 65.1947 7.68294 65.0494 8.57977 65.7675L12.2378 68.6936L19.2465 60.8089C20.0087 59.9507 21.324 59.8726 22.1827 60.6362C23.0415 61.4002 23.1187 62.7144 22.3554 63.5737Z" fill="#7C3AED"/>
</g>
<path d="M110.477 49.399C107.579 49.399 105.206 48.937 103.358 48.013C101.51 47.075 100.138 45.654 99.242 43.75C98.36 41.846 97.919 39.438 97.919 36.526V17.92H103.547V37.072C103.547 39.76 104.114 41.713 105.248 42.931C106.382 44.135 108.125 44.737 110.477 44.737C112.829 44.737 114.565 44.135 115.685 42.931C116.819 41.713 117.386 39.76 117.386 37.072V17.92H122.909V36.526C122.909 39.438 122.468 41.846 121.586 43.75C120.704 45.654 119.346 47.075 117.512 48.013C115.678 48.937 113.333 49.399 110.477 49.399ZM128.869 49V17.92H134.476V44.275H149.134V49H128.869ZM155.103 49V22.645H145.107V17.92H170.727V22.645H160.731V49H155.103ZM174.068 49V18.55C174.95 18.368 175.888 18.2 176.882 18.046C177.876 17.892 178.905 17.773 179.969 17.689C181.047 17.605 182.146 17.563 183.266 17.563C187.606 17.563 190.854 18.354 193.01 19.936C195.18 21.504 196.265 23.954 196.265 27.286C196.265 29.442 195.747 31.248 194.711 32.704C193.689 34.16 192.205 35.259 190.259 36.001C188.327 36.729 185.989 37.093 183.245 37.093C182.531 37.093 181.894 37.079 181.334 37.051C180.774 37.023 180.193 36.995 179.591 36.967V49H174.068ZM192.569 49L182.237 34.552H188.306L198.785 49H192.569ZM183.329 32.851C185.961 32.851 187.893 32.41 189.125 31.528C190.357 30.632 190.973 29.218 190.973 27.286C190.973 25.998 190.714 24.948 190.196 24.136C189.692 23.324 188.908 22.729 187.844 22.351C186.794 21.959 185.45 21.763 183.812 21.763C182.972 21.763 182.216 21.798 181.544 21.868C180.886 21.938 180.235 22.029 179.591 22.141V32.662C180.039 32.704 180.452 32.739 180.83 32.767C181.222 32.795 181.614 32.816 182.006 32.83C182.412 32.844 182.853 32.851 183.329 32.851ZM197.979 49L208.416 17.92H216.543L226.98 49H221.415L212.112 20.419H212.763L203.481 49H197.979ZM204.573 40.075L205.791 35.56H219.147L220.365 40.075H204.573ZM240.923 49V17.92H261.734V22.54H246.53V49H240.923ZM244.577 35.959V31.339H259.613V35.959H244.577ZM260.61 49L271.047 17.92H279.174L289.611 49H284.046L274.743 20.419H275.394L266.112 49H260.61ZM267.204 40.075L268.422 35.56H281.778L282.996 40.075H267.204ZM299.56 49.399C298.146 49.399 296.718 49.287 295.276 49.063C293.834 48.839 292.49 48.517 291.244 48.097V43.477C292.112 43.771 293.022 44.016 293.974 44.212C294.94 44.408 295.899 44.562 296.851 44.674C297.803 44.772 298.706 44.821 299.56 44.821C301.814 44.821 303.438 44.443 304.432 43.687C305.426 42.931 305.923 41.86 305.923 40.474C305.923 39.284 305.552 38.367 304.81 37.723C304.082 37.065 302.752 36.491 300.82 36.001L298.72 35.455C296.032 34.769 294.002 33.719 292.63 32.305C291.272 30.877 290.593 29.001 290.593 26.677C290.593 23.821 291.615 21.581 293.659 19.957C295.703 18.333 298.769 17.521 302.857 17.521C304.187 17.521 305.468 17.605 306.7 17.773C307.946 17.927 309.059 18.151 310.039 18.445V23.065C309.017 22.743 307.911 22.505 306.721 22.351C305.531 22.183 304.341 22.099 303.151 22.099C301.457 22.099 300.099 22.274 299.077 22.624C298.069 22.974 297.334 23.471 296.872 24.115C296.424 24.745 296.2 25.501 296.2 26.383C296.2 27.503 296.529 28.385 297.187 29.029C297.859 29.659 299.063 30.205 300.799 30.667L302.899 31.213C304.873 31.703 306.497 32.347 307.771 33.145C309.059 33.929 310.011 34.895 310.627 36.043C311.243 37.177 311.551 38.528 311.551 40.096C311.551 42.042 311.075 43.708 310.123 45.094C309.171 46.48 307.799 47.544 306.007 48.286C304.229 49.028 302.08 49.399 299.56 49.399ZM321.832 49V22.645H311.836V17.92H337.456V22.645H327.46V49H321.832ZM359.361 49.294C358.521 49.294 357.653 49.273 356.757 49.231C355.875 49.203 354.972 49.154 354.048 49.084C353.124 49.014 352.193 48.923 351.255 48.811V18.55C352.165 18.354 353.138 18.186 354.174 18.046C355.224 17.892 356.281 17.78 357.345 17.71C358.423 17.626 359.473 17.584 360.495 17.584C365.955 17.584 370.071 18.879 372.843 21.469C375.629 24.045 377.022 28.042 377.022 33.46C377.022 37.156 376.371 40.173 375.069 42.511C373.767 44.835 371.807 46.55 369.189 47.656C366.571 48.748 363.295 49.294 359.361 49.294ZM360.747 44.674C363.085 44.674 365.031 44.303 366.585 43.561C368.153 42.805 369.322 41.601 370.092 39.949C370.862 38.297 371.247 36.127 371.247 33.439C371.247 30.765 370.862 28.602 370.092 26.95C369.322 25.298 368.16 24.094 366.606 23.338C365.066 22.568 363.148 22.183 360.852 22.183C360.236 22.183 359.578 22.218 358.878 22.288C358.192 22.344 357.52 22.428 356.862 22.54V44.485C357.492 44.555 358.115 44.604 358.731 44.632C359.361 44.66 360.033 44.674 360.747 44.674ZM382.017 49V17.92H402.912V22.477H387.561V44.443H403.122V49H382.017ZM385.398 35.371V30.814H400.812V35.371H385.398ZM407.693 49V17.92H413.3V44.275H427.958V49H407.693ZM431.236 49V17.92H436.843V49H431.236ZM450.358 49L439.984 17.92H445.885L455.251 46.627H454.033L463.504 17.92H469.006L458.632 49H450.358ZM472.17 49V17.92H493.065V22.477H477.714V44.443H493.275V49H472.17ZM475.551 35.371V30.814H490.965V35.371H475.551ZM497.845 49V18.55C498.727 18.368 499.665 18.2 500.659 18.046C501.653 17.892 502.682 17.773 503.746 17.689C504.824 17.605 505.923 17.563 507.043 17.563C511.383 17.563 514.631 18.354 516.787 19.936C518.957 21.504 520.042 23.954 520.042 27.286C520.042 29.442 519.524 31.248 518.488 32.704C517.466 34.16 515.982 35.259 514.036 36.001C512.104 36.729 509.766 37.093 507.022 37.093C506.308 37.093 505.671 37.079 505.111 37.051C504.551 37.023 503.97 36.995 503.368 36.967V49H497.845ZM516.346 49L506.014 34.552H512.083L522.562 49H516.346ZM507.106 32.851C509.738 32.851 511.67 32.41 512.902 31.528C514.134 30.632 514.75 29.218 514.75 27.286C514.75 25.998 514.491 24.948 513.973 24.136C513.469 23.324 512.685 22.729 511.621 22.351C510.571 21.959 509.227 21.763 507.589 21.763C506.749 21.763 505.993 21.798 505.321 21.868C504.663 21.938 504.012 22.029 503.368 22.141V32.662C503.816 32.704 504.229 32.739 504.607 32.767C504.999 32.795 505.391 32.816 505.783 32.83C506.189 32.844 506.63 32.851 507.106 32.851ZM531.668 49V33.334L532.823 37.471L520.412 17.92H526.439L535.427 32.158H533.768L542.651 17.92H548.258L536.12 37.471L537.296 33.397V49H531.668Z" fill="white"/>
<path d="M100.852 88.154C100.412 88.154 99.9573 88.143 99.488 88.121C99.026 88.1063 98.553 88.0807 98.069 88.044C97.585 88.0073 97.0973 87.9597 96.606 87.901V72.05C97.0827 71.9473 97.5923 71.8593 98.135 71.786C98.685 71.7053 99.2387 71.6467 99.796 71.61C100.361 71.566 100.911 71.544 101.446 71.544C104.306 71.544 106.462 72.2223 107.914 73.579C109.373 74.9283 110.103 77.022 110.103 79.86C110.103 81.796 109.762 83.3763 109.08 84.601C108.398 85.8183 107.371 86.7167 106 87.296C104.629 87.868 102.913 88.154 100.852 88.154ZM101.578 85.734C102.803 85.734 103.822 85.5397 104.636 85.151C105.457 84.755 106.07 84.1243 106.473 83.259C106.876 82.3937 107.078 81.257 107.078 79.849C107.078 78.4483 106.876 77.3153 106.473 76.45C106.07 75.5847 105.461 74.954 104.647 74.558C103.84 74.1547 102.836 73.953 101.633 73.953C101.31 73.953 100.966 73.9713 100.599 74.008C100.24 74.0373 99.8877 74.0813 99.543 74.14V85.635C99.873 85.6717 100.199 85.6973 100.522 85.712C100.852 85.7267 101.204 85.734 101.578 85.734ZM118.241 88.22C116.826 88.22 115.653 88.0073 114.721 87.582C113.797 87.1493 113.108 86.4747 112.653 85.558C112.199 84.6413 111.971 83.4533 111.971 81.994C111.971 80.6373 112.18 79.5007 112.598 78.584C113.024 77.6673 113.632 76.978 114.424 76.516C115.216 76.0467 116.173 75.812 117.295 75.812C118.373 75.812 119.283 76.0467 120.023 76.516C120.771 76.978 121.336 77.6747 121.717 78.606C122.099 79.5373 122.289 80.696 122.289 82.082V82.863H113.599V81.125H120.089L119.583 81.367C119.583 80.4577 119.495 79.7353 119.319 79.2C119.143 78.6647 118.883 78.2833 118.538 78.056C118.194 77.8213 117.768 77.704 117.262 77.704C116.756 77.704 116.324 77.8177 115.964 78.045C115.605 78.2723 115.33 78.6537 115.139 79.189C114.956 79.7243 114.864 80.4467 114.864 81.356V82.478C114.864 83.3433 114.985 84.0363 115.227 84.557C115.477 85.0703 115.876 85.4407 116.426 85.668C116.976 85.888 117.713 85.998 118.637 85.998C119.099 85.998 119.583 85.9613 120.089 85.888C120.595 85.8147 121.116 85.712 121.651 85.58V87.791C121.035 87.945 120.449 88.055 119.891 88.121C119.341 88.187 118.791 88.22 118.241 88.22ZM124.424 88V70.224H127.317V88H124.424ZM130.182 88V75.999H133.075V88H130.182ZM131.634 73.953C131.018 73.953 130.556 73.8137 130.248 73.535C129.947 73.2563 129.797 72.8713 129.797 72.38C129.797 71.8813 129.947 71.4963 130.248 71.225C130.556 70.9463 131.018 70.807 131.634 70.807C132.257 70.807 132.719 70.9463 133.02 71.225C133.321 71.4963 133.471 71.8813 133.471 72.38C133.471 72.8713 133.321 73.2563 133.02 73.535C132.719 73.8137 132.257 73.953 131.634 73.953ZM138.888 88L134.565 75.999H137.59L140.923 85.756H140.67L144.003 75.999H146.863L142.529 88H138.888ZM153.905 88.22C152.49 88.22 151.317 88.0073 150.385 87.582C149.461 87.1493 148.772 86.4747 148.317 85.558C147.863 84.6413 147.635 83.4533 147.635 81.994C147.635 80.6373 147.844 79.5007 148.262 78.584C148.688 77.6673 149.296 76.978 150.088 76.516C150.88 76.0467 151.837 75.812 152.959 75.812C154.037 75.812 154.947 76.0467 155.687 76.516C156.435 76.978 157 77.6747 157.381 78.606C157.763 79.5373 157.953 80.696 157.953 82.082V82.863H149.263V81.125H155.753L155.247 81.367C155.247 80.4577 155.159 79.7353 154.983 79.2C154.807 78.6647 154.547 78.2833 154.202 78.056C153.858 77.8213 153.432 77.704 152.926 77.704C152.42 77.704 151.988 77.8177 151.628 78.045C151.269 78.2723 150.994 78.6537 150.803 79.189C150.62 79.7243 150.528 80.4467 150.528 81.356V82.478C150.528 83.3433 150.649 84.0363 150.891 84.557C151.141 85.0703 151.54 85.4407 152.09 85.668C152.64 85.888 153.377 85.998 154.301 85.998C154.763 85.998 155.247 85.9613 155.753 85.888C156.259 85.8147 156.78 85.712 157.315 85.58V87.791C156.699 87.945 156.113 88.055 155.555 88.121C155.005 88.187 154.455 88.22 153.905 88.22ZM160.088 88V75.999H162.464L162.695 77.572H162.838C163.205 76.9853 163.678 76.5527 164.257 76.274C164.837 75.9953 165.464 75.856 166.138 75.856C166.314 75.856 166.483 75.8633 166.644 75.878C166.813 75.8927 166.963 75.911 167.095 75.933V78.562C166.919 78.5327 166.732 78.5143 166.534 78.507C166.344 78.4923 166.153 78.485 165.962 78.485C165.603 78.485 165.236 78.5363 164.862 78.639C164.488 78.7343 164.136 78.881 163.806 79.079C163.476 79.277 163.201 79.5263 162.981 79.827V88H160.088ZM171.124 92.84L172.884 88L173.863 85.756L177.196 75.999H180.056L173.973 92.84H171.124ZM172.081 88L167.758 75.999H170.783L174.787 88H172.081ZM190.957 88.209C190.172 88.209 189.475 88.0587 188.867 87.758C188.265 87.4573 187.792 86.977 187.448 86.317C187.103 85.6497 186.931 84.766 186.931 83.666V75.999H189.813V83.49C189.813 84.3187 189.989 84.8943 190.341 85.217C190.7 85.5397 191.166 85.701 191.738 85.701C192.024 85.701 192.321 85.6607 192.629 85.58C192.944 85.492 193.245 85.36 193.531 85.184C193.817 85.0007 194.07 84.7733 194.29 84.502V75.999H197.183V88H194.785L194.587 86.757H194.455C193.985 87.2337 193.45 87.5967 192.849 87.846C192.247 88.088 191.617 88.209 190.957 88.209ZM200.049 88V75.999H202.447L202.645 77.264H202.788C203.25 76.7947 203.789 76.4353 204.405 76.186C205.021 75.9367 205.685 75.812 206.396 75.812C207.173 75.812 207.863 75.9623 208.464 76.263C209.073 76.5637 209.549 77.0477 209.894 77.715C210.239 78.375 210.411 79.2587 210.411 80.366V88H207.518V80.531C207.518 79.7023 207.342 79.1267 206.99 78.804C206.638 78.4813 206.154 78.32 205.538 78.32C205.245 78.32 204.94 78.3603 204.625 78.441C204.31 78.5217 204.005 78.65 203.712 78.826C203.419 79.002 203.162 79.233 202.942 79.519V88H200.049ZM217.434 88.209C216.554 88.209 215.743 88.011 215.003 87.615C214.269 87.2117 213.683 86.5737 213.243 85.701C212.803 84.821 212.583 83.6697 212.583 82.247C212.583 80.839 212.825 79.6583 213.309 78.705C213.793 77.7443 214.508 77.022 215.454 76.538C216.4 76.0467 217.566 75.801 218.952 75.801C219.23 75.801 219.505 75.812 219.777 75.834C220.055 75.856 220.308 75.8853 220.536 75.922V70.224H223.429V88H220.998L220.811 86.724H220.668C220.316 87.164 219.868 87.5233 219.326 87.802C218.783 88.0733 218.152 88.209 217.434 88.209ZM218.248 85.822C218.666 85.822 219.08 85.7377 219.491 85.569C219.901 85.4003 220.25 85.1363 220.536 84.777V78.199C220.323 78.155 220.074 78.1183 219.788 78.089C219.502 78.0523 219.219 78.034 218.941 78.034C217.804 78.034 216.946 78.342 216.367 78.958C215.787 79.574 215.498 80.5933 215.498 82.016C215.498 82.9987 215.611 83.765 215.839 84.315C216.073 84.865 216.396 85.2537 216.807 85.481C217.225 85.7083 217.705 85.822 218.248 85.822ZM231.98 88.22C230.564 88.22 229.391 88.0073 228.46 87.582C227.536 87.1493 226.846 86.4747 226.392 85.558C225.937 84.6413 225.71 83.4533 225.71 81.994C225.71 80.6373 225.919 79.5007 226.337 78.584C226.762 77.6673 227.371 76.978 228.163 76.516C228.955 76.0467 229.912 75.812 231.034 75.812C232.112 75.812 233.021 76.0467 233.762 76.516C234.51 76.978 235.074 77.6747 235.456 78.606C235.837 79.5373 236.028 80.696 236.028 82.082V82.863H227.338V81.125H233.828L233.322 81.367C233.322 80.4577 233.234 79.7353 233.058 79.2C232.882 78.6647 232.621 78.2833 232.277 78.056C231.932 77.8213 231.507 77.704 231.001 77.704C230.495 77.704 230.062 77.8177 229.703 78.045C229.343 78.2723 229.068 78.6537 228.878 79.189C228.694 79.7243 228.603 80.4467 228.603 81.356V82.478C228.603 83.3433 228.724 84.0363 228.966 84.557C229.215 85.0703 229.615 85.4407 230.165 85.668C230.715 85.888 231.452 85.998 232.376 85.998C232.838 85.998 233.322 85.9613 233.828 85.888C234.334 85.8147 234.854 85.712 235.39 85.58V87.791C234.774 87.945 234.187 88.055 233.63 88.121C233.08 88.187 232.53 88.22 231.98 88.22ZM238.162 88V75.999H240.538L240.769 77.572H240.912C241.279 76.9853 241.752 76.5527 242.331 76.274C242.911 75.9953 243.538 75.856 244.212 75.856C244.388 75.856 244.557 75.8633 244.718 75.878C244.887 75.8927 245.037 75.911 245.169 75.933V78.562C244.993 78.5327 244.806 78.5143 244.608 78.507C244.418 78.4923 244.227 78.485 244.036 78.485C243.677 78.485 243.31 78.5363 242.936 78.639C242.562 78.7343 242.21 78.881 241.88 79.079C241.55 79.277 241.275 79.5263 241.055 79.827V88H238.162ZM251.355 88V86.416L255.909 80.597C256.401 79.9737 256.789 79.4163 257.075 78.925C257.369 78.4337 257.578 77.9827 257.702 77.572C257.834 77.1613 257.9 76.758 257.9 76.362C257.9 75.5113 257.647 74.8917 257.141 74.503C256.643 74.107 255.843 73.909 254.743 73.909C254.105 73.909 253.475 73.9677 252.851 74.085C252.235 74.195 251.671 74.349 251.157 74.547V72.127C251.48 72.0023 251.858 71.896 252.29 71.808C252.723 71.7127 253.178 71.6393 253.654 71.588C254.131 71.5367 254.593 71.511 255.04 71.511C256.925 71.511 258.359 71.8777 259.341 72.611C260.324 73.337 260.815 74.4957 260.815 76.087C260.815 76.6517 260.738 77.209 260.584 77.759C260.438 78.309 260.192 78.892 259.847 79.508C259.503 80.1167 259.033 80.7877 258.439 81.521L254.622 86.317L254.512 85.547H261.629V88H251.355ZM269.164 88V70.224H272.057V77.253H272.2C272.64 76.7837 273.15 76.428 273.729 76.186C274.316 75.9367 274.958 75.812 275.654 75.812C276.38 75.812 277.037 75.9623 277.623 76.263C278.21 76.5563 278.672 77.0367 279.009 77.704C279.354 78.3713 279.526 79.255 279.526 80.355V88H276.633V80.542C276.633 79.706 276.454 79.1303 276.094 78.815C275.735 78.4923 275.255 78.331 274.653 78.331C274.353 78.331 274.045 78.3713 273.729 78.452C273.414 78.5327 273.11 78.6647 272.816 78.848C272.53 79.024 272.277 79.2477 272.057 79.519V88H269.164ZM287.286 88.22C286.149 88.22 285.163 87.9963 284.327 87.549C283.491 87.1017 282.842 86.4233 282.38 85.514C281.925 84.5973 281.698 83.435 281.698 82.027C281.698 80.6117 281.922 79.4457 282.369 78.529C282.816 77.6123 283.458 76.9303 284.294 76.483C285.13 76.0357 286.127 75.812 287.286 75.812C288.445 75.812 289.442 76.0357 290.278 76.483C291.114 76.9303 291.752 77.6123 292.192 78.529C292.639 79.4457 292.863 80.608 292.863 82.016C292.863 83.4167 292.636 84.579 292.181 85.503C291.726 86.4197 291.081 87.1017 290.245 87.549C289.409 87.9963 288.423 88.22 287.286 88.22ZM287.286 85.998C287.843 85.998 288.32 85.877 288.716 85.635C289.112 85.393 289.416 84.986 289.629 84.414C289.842 83.8347 289.948 83.0427 289.948 82.038C289.948 81.0187 289.842 80.2193 289.629 79.64C289.416 79.0533 289.108 78.639 288.705 78.397C288.309 78.155 287.836 78.034 287.286 78.034C286.729 78.034 286.248 78.155 285.845 78.397C285.449 78.639 285.145 79.0497 284.932 79.629C284.719 80.201 284.613 80.9893 284.613 81.994C284.613 83.0133 284.719 83.8163 284.932 84.403C285.145 84.9823 285.449 85.393 285.845 85.635C286.248 85.877 286.729 85.998 287.286 85.998ZM299.087 88.209C298.303 88.209 297.606 88.0587 296.997 87.758C296.396 87.4573 295.923 86.977 295.578 86.317C295.234 85.6497 295.061 84.766 295.061 83.666V75.999H297.943V83.49C297.943 84.3187 298.119 84.8943 298.471 85.217C298.831 85.5397 299.296 85.701 299.868 85.701C300.154 85.701 300.451 85.6607 300.759 85.58C301.075 85.492 301.375 85.36 301.661 85.184C301.947 85.0007 302.2 84.7733 302.42 84.502V75.999H305.313V88H302.915L302.717 86.757H302.585C302.116 87.2337 301.581 87.5967 300.979 87.846C300.378 88.088 299.747 88.209 299.087 88.209ZM308.18 88V75.999H310.556L310.787 77.572H310.93C311.297 76.9853 311.77 76.5527 312.349 76.274C312.928 75.9953 313.555 75.856 314.23 75.856C314.406 75.856 314.575 75.8633 314.736 75.878C314.905 75.8927 315.055 75.911 315.187 75.933V78.562C315.011 78.5327 314.824 78.5143 314.626 78.507C314.435 78.4923 314.245 78.485 314.054 78.485C313.695 78.485 313.328 78.5363 312.954 78.639C312.58 78.7343 312.228 78.881 311.898 79.079C311.568 79.277 311.293 79.5263 311.073 79.827V88H308.18ZM319.988 88.22C319.328 88.22 318.69 88.176 318.074 88.088C317.458 88.0073 316.875 87.8827 316.325 87.714V85.547C316.911 85.723 317.505 85.855 318.107 85.943C318.715 86.031 319.331 86.075 319.955 86.075C320.835 86.075 321.462 85.9467 321.836 85.69C322.21 85.426 322.397 85.063 322.397 84.601C322.397 84.2123 322.294 83.9153 322.089 83.71C321.883 83.5047 321.535 83.3543 321.044 83.259L319.207 82.907C318.092 82.687 317.285 82.2983 316.787 81.741C316.288 81.1763 316.039 80.4357 316.039 79.519C316.039 78.419 316.475 77.528 317.348 76.846C318.228 76.1567 319.57 75.812 321.374 75.812C321.938 75.812 322.481 75.845 323.002 75.911C323.53 75.9697 324.014 76.0613 324.454 76.186V78.353C323.984 78.221 323.497 78.122 322.991 78.056C322.492 77.99 321.982 77.957 321.462 77.957C320.758 77.957 320.208 78.0267 319.812 78.166C319.423 78.298 319.148 78.4777 318.987 78.705C318.825 78.9323 318.745 79.1817 318.745 79.453C318.745 79.783 318.844 80.058 319.042 80.278C319.24 80.4907 319.584 80.6483 320.076 80.751L321.902 81.092C322.987 81.3047 323.79 81.675 324.311 82.203C324.839 82.7237 325.103 83.4827 325.103 84.48C325.103 85.6387 324.659 86.5517 323.772 87.219C322.892 87.8863 321.63 88.22 319.988 88.22ZM328.624 88.165C328.045 88.165 327.579 88.0037 327.227 87.681C326.875 87.3583 326.699 86.9183 326.699 86.361C326.699 85.8037 326.872 85.3637 327.216 85.041C327.561 84.7183 328.03 84.557 328.624 84.557C329.211 84.557 329.677 84.722 330.021 85.052C330.366 85.382 330.538 85.8183 330.538 86.361C330.538 86.9037 330.362 87.34 330.01 87.67C329.658 88 329.196 88.165 328.624 88.165ZM334.382 88.165C333.803 88.165 333.337 88.0037 332.985 87.681C332.633 87.3583 332.457 86.9183 332.457 86.361C332.457 85.8037 332.629 85.3637 332.974 85.041C333.319 84.7183 333.788 84.557 334.382 84.557C334.969 84.557 335.434 84.722 335.779 85.052C336.124 85.382 336.296 85.8183 336.296 86.361C336.296 86.9037 336.12 87.34 335.768 87.67C335.416 88 334.954 88.165 334.382 88.165ZM340.14 88.165C339.56 88.165 339.095 88.0037 338.743 87.681C338.391 87.3583 338.215 86.9183 338.215 86.361C338.215 85.8037 338.387 85.3637 338.732 85.041C339.076 84.7183 339.546 84.557 340.14 84.557C340.726 84.557 341.192 84.722 341.537 85.052C341.881 85.382 342.054 85.8183 342.054 86.361C342.054 86.9037 341.878 87.34 341.526 87.67C341.174 88 340.712 88.165 340.14 88.165Z" fill="white"/>
<defs>
<clipPath id="clip0_79_980">
<rect width="72" height="72" fill="white" transform="translate(0 12)"/>
</clipPath>
</defs>
</svg>
