<svg width="181" height="181" viewBox="0 0 181 181" fill="none" xmlns="http://www.w3.org/2000/svg">
<g clip-path="url(#clip0_117_1245)">
<path d="M143.224 106.527L139.673 108.391L136.121 106.527C115.088 95.343 90.932 79.096 90.8063 52.4964V38.592H81.159V57.4839H63.3755V38.592H25.0628C11.2344 38.592 0 49.8264 0 63.6802V147.257C0 161.111 11.2344 172.32 25.0628 172.32H119.245C133.074 172.32 144.308 161.111 144.308 147.257V105.947C143.93 106.149 143.577 106.325 143.224 106.527ZM29.3955 113.781L38.8666 125.066C38.8666 125.066 35.7433 125.066 32.0404 125.066V139.726H26.7761V125.066H19.9245L29.3955 113.781ZM60.4284 153.53H22.6953V148.769H60.4281L60.4284 153.53ZM56.373 125.066V139.726H51.0833V125.066H44.2571L53.7279 113.781L63.1989 125.066C63.1992 125.066 60.0756 125.066 56.373 125.066ZM139.669 8.65625C129.552 16.5905 115.695 21.1264 98.3614 21.1264V52.4727C98.4549 72.6432 115.165 86.8279 139.669 99.8434C164.157 86.8277 180.882 72.643 180.976 52.4727V21.1258C163.642 21.1258 149.785 16.5902 139.669 8.65625ZM139.669 92.7508V52.4725H104.597V27.174C118.251 26.3324 130.004 22.7005 139.669 16.3249V52.4725H174.741C174.663 67.1406 164.11 79.2832 139.669 92.7508Z" fill="white"/>
</g>
<defs>
<clipPath id="clip0_117_1245">
<rect width="180.976" height="180.976" fill="white"/>
</clipPath>
</defs>
</svg>
