<svg width="181" height="181" viewBox="0 0 181 181" fill="none" xmlns="http://www.w3.org/2000/svg">
<g clip-path="url(#clip0_117_1254)">
<path d="M149.072 69.6402C149.999 71.9087 148.91 74.5006 146.641 75.4264C146.641 75.4264 103.263 93.1378 103.245 93.1452C102.302 93.5527 101.327 93.8265 100.339 93.8265C97.9327 93.8265 95.5723 92.6534 94.1505 90.4894L72.6277 57.7154C70.3857 54.3002 71.3364 49.7146 74.7515 47.4725C78.1697 45.236 82.7523 46.1808 84.9944 49.5963L106.443 82.2574L143.287 67.2089C145.546 66.2777 148.144 67.3695 149.072 69.6402ZM100.334 5.78809C73.0731 5.78809 48.9457 19.397 34.3413 40.1646C37.3638 42.1364 40.31 44.8404 43.1595 48.3165C54.0547 32.0254 71.6711 20.5956 92.0536 18.1385L100.333 32.1484L108.612 18.1382C139.943 21.9141 164.847 46.8172 168.625 78.1482L154.613 86.4284L168.625 94.7089C166.1 115.656 154.103 133.69 137.084 144.499C138.168 146.97 138.779 149.497 138.887 152.102C138.967 154.006 138.77 155.804 138.375 157.512C163.709 143.9 180.976 117.147 180.976 86.4299C180.976 41.9628 144.801 5.78809 100.334 5.78809ZM120.913 138.597C102.323 123.657 97.1245 131.001 88.6896 139.435C82.8008 145.326 67.8987 133.024 55.0314 120.156C42.1632 107.287 29.8643 92.387 35.7525 86.4973C44.188 78.0633 51.5299 72.862 36.5855 54.2771C21.6461 35.6854 11.6872 49.9589 3.51635 58.1303C-5.91685 67.5602 3.01926 102.702 37.7506 137.438C72.4867 172.17 107.628 181.101 117.055 171.674C125.225 163.502 139.503 153.545 120.913 138.597ZM23.2045 64.3571C22.9538 64.4594 22.5856 64.6102 22.1175 64.8018C21.231 65.1416 20.1711 65.5254 18.9921 66.0388C18.4418 66.3037 17.8247 66.5909 17.2619 66.9445C16.6785 67.2932 16.098 67.6883 15.5755 68.1771C15.0042 68.6393 14.5603 69.2304 14.0466 69.8496C13.6646 70.5327 13.1719 71.2303 12.9058 72.0689C12.5193 72.8626 12.3806 73.7767 12.1497 74.6762C11.9719 75.5888 11.9406 76.5371 11.8276 77.4633C11.8164 79.3354 11.8888 81.1337 12.1298 82.6663C12.2561 84.2242 12.6515 85.5401 12.8076 86.4526C12.9986 87.3679 13.1081 87.8907 13.1081 87.8907C13.1081 87.8907 12.8268 87.4359 12.3351 86.6401C11.8684 85.8207 11.0768 84.7671 10.3816 83.269C9.58051 81.8126 8.83325 80.0209 8.12236 78.0048C7.86952 76.9644 7.5262 75.8854 7.33636 74.7294C7.2024 73.5608 6.9815 72.3552 7.07022 71.086C7.03177 69.8189 7.29111 68.5381 7.5265 67.2438C7.90117 65.9903 8.30038 64.7193 8.91191 63.5888C9.47051 62.4332 10.1737 61.3872 10.8763 60.475C11.5831 59.5349 12.3126 58.7657 13.0001 58.0501C14.3719 56.7005 15.5628 55.7143 16.2568 55.109C16.6536 54.7763 16.8166 54.5965 16.9937 54.4386C17.1504 54.2919 17.2338 54.2136 17.2338 54.2136L23.6091 64.1847C23.6088 64.1855 23.4683 64.245 23.2045 64.3571ZM118.882 159.078C118.257 159.857 117.275 161.061 115.945 162.426C115.236 163.098 114.505 163.827 113.595 164.514C112.742 165.227 111.706 165.879 110.65 166.491C109.562 167.089 108.404 167.602 107.182 167.984C105.972 168.352 104.716 168.65 103.483 168.75L101.648 168.881L99.8684 168.785C98.6974 168.771 97.6071 168.459 96.5567 168.283C95.509 168.089 94.5589 167.7 93.6493 167.439C92.74 167.193 91.9241 166.745 91.1692 166.447C89.6409 165.839 88.5459 165.138 87.72 164.704C86.9089 164.257 86.4455 164.002 86.4455 164.002C86.4455 164.002 86.968 164.082 87.8826 164.222C88.7914 164.344 90.1182 164.631 91.6544 164.662C92.4283 164.678 93.2217 164.813 94.1012 164.731C94.9691 164.664 95.8742 164.707 96.7806 164.546C97.6805 164.366 98.614 164.314 99.4804 163.987L100.782 163.588L101.989 163.024C105.177 161.479 106.911 158.759 107.916 156.489C108.414 155.317 108.77 154.284 109.038 153.475C109.331 152.623 109.498 152.136 109.498 152.136L119.824 157.919C119.824 157.919 119.482 158.34 118.882 159.078Z" fill="black"/>
</g>
<defs>
<clipPath id="clip0_117_1254">
<rect width="180.976" height="180.976" fill="white"/>
</clipPath>
</defs>
</svg>
